inDegrees=no
num_controls=7
num_derivatives=13
num_iterations=91
num_multipliers=7
num_parameters=0
num_slacks=7
num_states=26
objective=0.468405
objective_accelerations=0.002721
objective_balance=0.002089
objective_effort=0.004331
objective_height=0.454105
objective_ligament=0.005159
solver_duration=1394.589199
status=Solve_Succeeded
success=true
DataType=double
version=3
OpenSimVersion=4.5
endheader
time	/jointset/ground_pelvis/pelvis_tilt/value	/jointset/ground_pelvis/pelvis_tx/value	/jointset/ground_pelvis/pelvis_ty/value	/jointset/hip_l/hip_flexion_l/value	/jointset/hip_l/hip_adduction_l/value	/jointset/hip_l/hip_rotation_l/value	/jointset/back/lumbar_extension/value	/jointset/patellofemoral_l/patellar_flexion_l/value	/jointset/knee_l/knee_flexion_l/value	/jointset/knee_l/knee_adduction_l/value	/jointset/knee_l/knee_rotation_l/value	/jointset/ankle_l/ankle_angle_l/value	/jointset/subtalar_l/subtalar_angle_l/value	/jointset/ground_pelvis/pelvis_tilt/speed	/jointset/ground_pelvis/pelvis_tx/speed	/jointset/ground_pelvis/pelvis_ty/speed	/jointset/hip_l/hip_flexion_l/speed	/jointset/hip_l/hip_adduction_l/speed	/jointset/hip_l/hip_rotation_l/speed	/jointset/back/lumbar_extension/speed	/jointset/patellofemoral_l/patellar_flexion_l/speed	/jointset/knee_l/knee_flexion_l/speed	/jointset/knee_l/knee_adduction_l/speed	/jointset/knee_l/knee_rotation_l/speed	/jointset/ankle_l/ankle_angle_l/speed	/jointset/subtalar_l/subtalar_angle_l/speed	/forceset/tau_hip_flexion_l	/forceset/tau_hip_adduction_l	/forceset/tau_hip_rotation_l	/forceset/tau_knee_flexion_l	/forceset/tau_ankle_angle_l	/forceset/tau_subtalar_angle_l	/forceset/tau_lumbar_extension	lambda_cid13_p0	lambda_cid13_p1	lambda_cid13_p2	lambda_cid13_p3	lambda_cid13_p4	lambda_cid13_p5	lambda_cid14_p0	/jointset/ground_pelvis/pelvis_tilt/accel	/jointset/ground_pelvis/pelvis_tx/accel	/jointset/ground_pelvis/pelvis_ty/accel	/jointset/hip_l/hip_flexion_l/accel	/jointset/hip_l/hip_adduction_l/accel	/jointset/hip_l/hip_rotation_l/accel	/jointset/back/lumbar_extension/accel	/jointset/patellofemoral_l/patellar_flexion_l/accel	/jointset/knee_l/knee_flexion_l/accel	/jointset/knee_l/knee_adduction_l/accel	/jointset/knee_l/knee_rotation_l/accel	/jointset/ankle_l/ankle_angle_l/accel	/jointset/subtalar_l/subtalar_angle_l/accel	gamma_cid13_p0	gamma_cid13_p1	gamma_cid13_p2	gamma_cid13_p3	gamma_cid13_p4	gamma_cid13_p5	gamma_cid14_p0
0	-0.04638595815719848	0.07195198927328862	0.8962320282829461	0.1955287580552426	-0.3189507523519748	-0.5425890682410094	-0.1379045077516729	0.07015288079084253	0.07015288079084844	-0.1745329177125637	-0.1741175559503337	-0.06701059314715049	0.007766453747681162	0	0	0	0	0	0	0	0	0	0	0	0	0	0.0718759889048539	-0.07276154808237026	-0.04138881763159073	-0.2445335320821575	0.2607019659244861	-0.04183615513514543	-0.01081822300518329	45.82563821818917	4.231639057659677	5.744729377332949	-35.10132868333526	-543.7111768858099	-61.21179518250968	-41.5613458798422	-0.4864378870924967	0.3041355574965007	-0.0657516324554851	0.6371375704105489	-0.2524009083827081	0.3470539283259807	-1.342117625314218	0.9904183805501405	0.9904183805497078	0.04807665228317251	0.02463532530499807	0.8357955967736757	0.1817174867436613	2.568579931408474e-10	1.253070438338269e-08	-2.724747157026284e-09	4.81338689468197e-09	9.802980592289493e-09	1.559950202111299e-08	6.087640402557552e-10
0.01	-0.04640626167915594	0.07196419799820779	0.8962288889968147	0.1955590881766681	-0.3189631715978619	-0.542571529737866	-0.1379709291973355	0.07020058838105138	0.0702005883809725	-0.1745312301422157	-0.1741159955462069	-0.06697326262218974	0.007773305853771006	-0.003704007749671358	0.002138371240844557	-0.0006202028121099734	0.006019489019195849	-0.002473105186548896	0.003500179304500365	-0.01317504425653184	0.009458056742825491	0.009458056742828845	0.0002970812697572078	0.0002837006583839449	0.007060537228564775	0.001159357235111373	0.0556414212893963	-0.06159117904240637	-0.03643029385011121	-0.2093022099051604	0.2070795814501797	-0.02873841998253706	0.0007629702847966986	29.11448345529565	1.257741372769031	6.46049489142058	-22.90114670525118	-543.2610659732389	-67.36920492853291	-41.56209336401951	-0.2588777995859138	0.1231828091612923	-0.05900448298655164	0.577374270351954	-0.243153590574456	0.3503724614261898	-1.28881109494062	0.9109800042088272	0.9109800042093383	0.01445971884080292	0.02597960494114697	0.5803477505449368	0.05138359375713165	-5.758255611949639e-10	5.982808699936385e-09	3.64378995821127e-10	2.314346011435296e-09	2.95430979081441e-09	5.79032761744976e-09	5.932388005272291e-11
0.02	-0.04645290439475044	0.07198868941589191	0.8962197777070817	0.1956482171289295	-0.3189999995489639	-0.5425192149357442	-0.1381658237393671	0.0703403726753179	0.07034037267531704	-0.1745277845884439	-0.1741124497017601	-0.06687749373201542	0.007785419282584345	-0.005267838726670892	0.002456538552992998	-0.001194400720331579	0.01175976614543797	-0.004881741044452844	0.006955259805566222	-0.02569461927780069	0.01841534080805637	0.01841534080806405	0.0003515967202593692	0.0003970880702084769	0.01168767304301219	0.001052264544705924	0.03940685367537616	-0.05042081000241209	-0.03147177006820312	-0.1740708877274781	0.1534571969761787	-0.01564068482973284	0.0123441635756873	12.40980453780566	-1.716936055194581	7.17598024307699	-10.73611885445493	-542.7303180680827	-73.50897258884596	-41.56445863559539	-0.05840253255840219	-0.05990522824252557	-0.05655065167785493	0.5812951918195804	-0.2395070426541624	0.3380341676390681	-1.211023778261692	0.8902638450311889	0.8902638450309509	-0.0004365115688696394	-0.009427324006864312	0.3491153139502573	-0.07157249836015421	-1.408509115530775e-09	-5.650869835099163e-10	3.453505148668538e-09	-1.84694871811378e-10	-3.894361010660673e-09	-4.018846786213469e-09	-4.901162801503094e-10
0.03	-0.04650890515775677	0.07201115433797747	0.8962050895869478	0.1957936490774495	-0.3190605656362973	-0.5424326787068353	-0.1384829926084662	0.07056795995634201	0.07056795995637134	-0.1745243350412979	-0.1741083253174165	-0.06674254596185968	0.007792946095519841	-0.00601369533776886	0.002122486038017921	-0.001741507035082181	0.01729972816406292	-0.007218296143068664	0.01033669068461529	-0.03766907891451967	0.0270828808403407	0.02708288084034254	0.0003597733420356592	0.0004348825162561221	0.01539933269148526	0.0005210686067940917	0.04216038063478595	-0.05369015969592818	-0.032409188046441	-0.1809478975399683	0.1635615237416053	-0.01696908461268997	0.01054924863095853	15.60022126601796	-1.617564114103857	7.067539886738411	-13.41207031465493	-543.0147174161673	-73.29858365695324	-41.56849544219095	-0.0948846623493072	-0.007249283707389079	-0.05353398726190633	0.5363121284268377	-0.22875321682616	0.3359027280478218	-1.180145712407272	0.852113999319131	0.8521139993184869	0.004664326603000885	0.01144741051523724	0.3968089219393043	-0.03369783834642397	-1.856418413172284e-09	1.133967750030278e-09	3.294826419130445e-09	7.093941188439304e-10	-5.009811600562969e-09	-3.054719827868463e-09	-3.987628102860637e-10
0.04	-0.04657480597426048	0.07203285993079739	0.8961849817304878	0.1959936737304344	-0.3191441019692919	-0.5423127871331189	-0.1389178038051428	0.07088164562106848	0.0708816456210693	-0.1745201598122254	-0.1741036100722954	-0.06656755806889056	0.00779720000970825	-0.007247849427384844	0.002304672699862678	-0.002278347985535382	0.0226783070444321	-0.00947579017611423	0.01362632876405808	-0.04922308479246769	0.03563501755229901	0.03563501755229481	0.0004967330658782016	0.0005152602264910011	0.01969569760569292	0.0003976847952864319	0.04491390759369946	-0.05695950938945838	-0.03334660602475961	-0.1878249073527653	0.1736658505068883	-0.01829748439573995	0.008754333685961572	18.79642482866739	-1.518849814326738	6.958798213736758	-16.11299500266695	-543.2223376336666	-73.07102192474539	-41.57407479721393	-0.1560620282621743	0.04334260712157376	-0.05449757881839495	0.5490185641683146	-0.2236948295403176	0.3196756077178012	-1.126933026507574	0.8671831809659619	0.8671831809656844	0.02532010884389813	-0.0009106711694041071	0.4660563670972405	0.009989926920494883	-2.296394220985045e-09	3.003062698353699e-09	3.069182640471001e-09	1.67344455019825e-09	-6.007051464453455e-09	-1.868462944533594e-09	-2.941971006266164e-10
0.05	-0.04665461148249186	0.07205811138704317	0.8961595593319884	0.1962465934720748	-0.3192499018189083	-0.5421605932875312	-0.1394661947035237	0.071280010445472	0.07128001044548016	-0.1745143835750003	-0.1740980626703006	-0.0663479062206806	0.007801497519455734	-0.008704976144191669	0.002746187864584189	-0.002803871226196509	0.02786665423180989	-0.0116789346262865	0.01678531791235631	-0.06040072336288627	0.04398922571738118	0.04398922571737911	0.0006383463017162952	0.000585585479905414	0.02420893122909403	0.0004536119830505656	0.04382289508471281	-0.05301487388254543	-0.03311949292183682	-0.18615637569817	0.1728200281864513	-0.02061688458390162	0.009655539238785338	18.43577151109566	-0.5411059365006394	6.908826956698575	-15.69225762902399	-543.3103883317714	-70.71381537472844	-41.5811209926826	-0.1392968446529856	0.04464171120165879	-0.05124183296008247	0.497894369544107	-0.217838171161697	0.3099418989365104	-1.105023544424953	0.8122314501971961	0.8122314501976341	0.005557620226641052	0.009709186945665192	0.4400955423149536	0.002162540054259701	-2.626613887500698e-09	2.052968377487727e-09	3.809602373389843e-09	1.699842640605751e-09	-7.20315777644292e-09	-2.85496710754147e-09	-4.861828713213847e-10
0.06	-0.04674874002814224	0.07208779514294722	0.8961289492738279	0.1965502270003043	-0.3193775758967077	-0.5419776232843555	-0.1401247308420305	0.07176045571473393	0.07176045571473325	-0.1745077960675353	-0.1740920710030761	-0.06608389429976592	0.007806107986150845	-0.01011245691153938	0.003191132631516146	-0.003315879917767503	0.03282106436003583	-0.01385063581270278	0.01978156028268203	-0.07125213281796025	0.05205110651917533	0.05205110651917561	0.0006589871084678029	0.0006041132672687043	0.02856771214663117	0.0004602761848095003	0.04273188257586732	-0.04907023837561699	-0.03289237981905802	-0.1844878440434696	0.1719742058660558	-0.02293628477202212	0.01055674479168252	18.08075939434578	0.4364114061180788	6.858022347273863	-15.29852728318592	-543.3261366702085	-68.33986324537643	-41.58961364107577	-0.1461328383704669	0.04402852756376338	-0.05179466900037733	0.5022311523378828	-0.2174061767892106	0.2871262521232926	-1.061687203438725	0.8087177083083348	0.8087177083081016	0.001125623026363876	-0.01127016437961435	0.435165825924518	0.0001373297193973892	-2.952212242803841e-09	9.841713505506226e-10	4.590698464690929e-09	1.686760632447071e-09	-8.407637412562867e-09	-3.93295594618483e-09	-6.906550201363304e-10
0.07000000000000001	-0.04685679422096074	0.07212203812339685	0.8960932856489318	0.1969023355763987	-0.3195267570853604	-0.5417653046415999	-0.1408898489894625	0.07232016079814235	0.0723201607981459	-0.1745013986872887	-0.1740859810992232	-0.06577686498205183	0.007810704588737663	-0.01149711694235376	0.003667530265350616	-0.003814267888828205	0.03756537497687497	-0.01597458503193349	0.02267714426854412	-0.08168966424920068	0.05984596333442695	0.05984596333442779	0.0006194342798942193	0.0006265127982505689	0.03283045029343935	0.0004667722900521835	0.04157989438582128	-0.04443130571722001	-0.03268723360215887	-0.1830123139020691	0.1718452012665702	-0.02593153727129023	0.01155845583326396	17.9266060966527	1.65765136486579	6.785073938388249	-15.05553704289679	-543.4460782662235	-65.3785765570274	-41.59950082134959	-0.134443092785718	0.05095573977409531	-0.04847598140518565	0.4552392809486989	-0.2082373708404874	0.2900202294721638	-1.022511250306682	0.7582777845743435	0.7582777845746118	-0.006653135692078965	0.01089243883517185	0.4206723557656142	0.002064310661699213	-3.476629148769375e-09	1.446798995975126e-09	5.34751212761246e-09	2.039107742892786e-09	-9.379710587857998e-09	-4.372062964256936e-09	-8.052455675335353e-10
0.08	-0.04697865711555343	0.07216134715188133	0.8960527151202752	0.1973008289115804	-0.3196968473814762	-0.5415241810074536	-0.141756887478674	0.07295649607298454	0.07295649607298381	-0.1744954283152882	-0.1740792877146657	-0.06542743937352816	0.007815597864323913	-0.01287419726711446	0.004204342238486192	-0.004297260669852743	0.04209801617739053	-0.01803245730518077	0.02554255856058249	-0.09163620117405687	0.06737714480730478	0.06737714480730779	0.0005735854556013086	0.0007248094091556389	0.03704697030851178	0.0005196107846932029	0.04042790619572066	-0.0397923730588262	-0.03248208738524265	-0.1815367837607302	0.1717161966670534	-0.02892678977057895	0.01256016687483469	17.77776322237573	2.878974571999786	6.710955099582707	-14.83831059520137	-543.4987469201087	-62.40123166862843	-41.61069909453681	-0.1446168971598247	0.05611139542407282	-0.04871563099315028	0.4598972690731239	-0.2041907875925835	0.2810923133585397	-0.9634883021619445	0.7559826398335534	0.755982639833647	-0.0001335761176431173	0.003909251605039611	0.4259221995774419	0.009405807599041168	-4.01387305800345e-09	2.008228233164894e-09	6.102759182251438e-09	2.415030925506526e-09	-1.033678979793862e-08	-4.769951800356701e-09	-9.140373019360469e-10
0.09	-0.04711421742491412	0.07220618349471976	0.8960073792992073	0.1977438117091808	-0.3198871903816143	-0.5412548881663056	-0.1427211094627643	0.07366700282412807	0.07366700282412646	-0.1744899057436021	-0.1740716422204685	-0.0650361895189433	0.007821189583341357	-0.01423109125340082	0.004758894921223491	-0.004768207945972559	0.04648106129750185	-0.02002459486405105	0.02827965300617083	-0.1011452895518939	0.0746936536199353	0.0746936536199428	0.0005341794685678402	0.0007795645708604734	0.04118278245807234	0.0006004839659278369	0.03894739708590027	-0.03702764986887734	-0.03214220782687725	-0.1792715425372489	0.1691584215006205	-0.02964984033361347	0.01377521889730031	16.93258898180463	3.285785161585968	6.709143365719815	-14.26011282143792	-543.5645355177953	-61.30585250728084	-41.62312517373507	-0.1302099831590235	0.0545229828178514	-0.04603201909172494	0.4248853138307982	-0.1949939519495211	0.2645636956743624	-0.9351831920219363	0.7149024161275734	0.7149024161282342	-0.00535534673096718	0.002550716932950195	0.4043776052551929	0.007689744760787671	-3.947896448132827e-09	1.25194220293576e-09	6.105715468147864e-09	2.32886903399371e-09	-1.079970244503458e-08	-4.993606336989285e-09	-9.583948352242929e-10
